<svg width="1200" height="250" viewBox="0 0 1200 250" fill="none" xmlns="http://www.w3.org/2000/svg" role="img" aria-labelledby="title desc">
  <title id="title">Music Player</title>
  <desc id="desc">A focused responsive music-player interface built with Next.js and TypeScript.</desc>
  <style>
    .mono { font-family: "SFMono-Regular", Consolas, "Liberation Mono", monospace; }
    .sans { font-family: Inter, ui-sans-serif, system-ui, -apple-system, BlinkMacSystemFont, "Segoe UI", sans-serif; }
  </style>
  <rect width="1200" height="250" rx="22" fill="#081416"/>
  <rect x="20" y="20" width="1160" height="210" rx="16" fill="#0d1d20" stroke="#294348"/>
  <path d="M142 20V230M856 20V230" stroke="#294348"/>
  <text x="54" y="142" fill="#f3ebdc" class="mono" font-size="64" font-weight="700">03</text>
  <text x="176" y="58" fill="#ffb000" class="mono" font-size="12" letter-spacing="2.5">PROJECT NOTE / RESPONSIVE UI</text>
  <text x="176" y="105" fill="#f3ebdc" class="sans" font-size="38" font-weight="720" letter-spacing="-1">MUSIC PLAYER</text>
  <text x="176" y="143" fill="#91a4a3" class="sans" font-size="16">A focused music-player UI where I practiced responsive layout</text>
  <text x="176" y="169" fill="#91a4a3" class="sans" font-size="16">and the Next.js component model.</text>
  <text x="176" y="207" fill="#55c4b2" class="mono" font-size="11" letter-spacing="1.7">NEXT.JS  ·  TYPESCRIPT  ·  TAILWIND</text>
  <g transform="translate(900 50)">
    <circle cx="111" cy="75" r="58" fill="#081416" stroke="#294348" stroke-width="2"/>
    <circle cx="111" cy="75" r="35" fill="#14282c" stroke="#55c4b2"/>
    <path d="M101 57L130 75L101 93V57Z" fill="#ffb000"/>
    <path d="M1 144H8L14 122L22 159L30 133L39 149L48 116L58 162L67 137L76 146L85 126L94 154L103 136L112 146L121 115L131 161L140 133L149 150L158 122L167 158L176 137L185 146L194 128L203 153L213 136L221 145" stroke="#55c4b2" stroke-width="2"/>
  </g>
  <path d="M34 34H62M34 34V62M1166 216H1138M1166 216V188" stroke="#ffb000" stroke-width="2"/>
</svg>
