<svg width="720" height="430" viewBox="0 0 720 430" fill="none" xmlns="http://www.w3.org/2000/svg" role="img" aria-labelledby="title desc">
  <title id="title">Music Player</title>
  <desc id="desc">A focused responsive music-player interface built with Next.js and TypeScript.</desc>
  <style>.mono{font-family:"SFMono-Regular",Consolas,"Liberation Mono",monospace}.sans{font-family:Inter,ui-sans-serif,system-ui,-apple-system,BlinkMacSystemFont,"Segoe UI",sans-serif}</style>
  <rect width="720" height="430" rx="28" fill="#081416"/>
  <rect x="20" y="20" width="680" height="390" rx="20" fill="#0d1d20" stroke="#294348"/>
  <path d="M20 112H700M20 312H700" stroke="#294348"/>
  <text x="48" y="81" fill="#f3ebdc" class="mono" font-size="48" font-weight="700">03</text>
  <text x="150" y="59" fill="#ffb000" class="mono" font-size="11" letter-spacing="2.2">PROJECT NOTE</text>
  <text x="150" y="83" fill="#91a4a3" class="mono" font-size="11" letter-spacing="2.2">RESPONSIVE AUDIO UI</text>
  <text x="48" y="169" fill="#f3ebdc" class="sans" font-size="38" font-weight="760" letter-spacing="-1">MUSIC PLAYER</text>
  <text x="48" y="207" fill="#91a4a3" class="sans" font-size="16">A focused music-player UI where I practiced</text>
  <text x="48" y="232" fill="#91a4a3" class="sans" font-size="16">responsive layout and the Next.js</text>
  <text x="48" y="257" fill="#91a4a3" class="sans" font-size="16">component model.</text>
  <text x="48" y="290" fill="#55c4b2" class="mono" font-size="10" letter-spacing="1.4">NEXT.JS · TYPESCRIPT · TAILWIND</text>
  <g transform="translate(48 337)">
    <path d="M0 45H10L20 15L31 71L42 31L54 59L66 7L79 75L91 38L103 55L115 21L128 67L140 37L152 56L165 5L178 75L190 30L203 62L216 14L229 70L242 37L255 57L268 24L281 65L294 36L307 55L320 15L333 71L346 31L359 59L372 7L385 75L398 38L411 55L424 21L437 67L450 37L463 56L476 5L489 75L502 30L515 62L528 14L541 70L554 37L567 57L580 24L593 65L606 36L620 55" stroke="#55c4b2" stroke-width="2"/>
    <circle cx="548" cy="44" r="30" fill="#081416" stroke="#ffb000"/><path d="M540 30L562 44L540 58V30Z" fill="#ffb000"/>
  </g>
  <path d="M34 34H62M34 34V62M686 396H658M686 396V368" stroke="#ffb000" stroke-width="2"/>
</svg>
