<svg width="720" height="430" viewBox="0 0 720 430" fill="none" xmlns="http://www.w3.org/2000/svg" role="img" aria-labelledby="title desc">
  <title id="title">Advanced Sticky Note</title>
  <desc id="desc">An interactive note workspace with multiple sheets, drag, resize, and local persistence.</desc>
  <style>.mono{font-family:"SFMono-Regular",Consolas,"Liberation Mono",monospace}.sans{font-family:Inter,ui-sans-serif,system-ui,-apple-system,BlinkMacSystemFont,"Segoe UI",sans-serif}</style>
  <rect width="720" height="430" rx="28" fill="#081416"/>
  <rect x="20" y="20" width="680" height="390" rx="20" fill="#0d1d20" stroke="#294348"/>
  <path d="M20 112H700M20 312H700" stroke="#294348"/>
  <text x="48" y="81" fill="#f3ebdc" class="mono" font-size="48" font-weight="700">02</text>
  <text x="150" y="59" fill="#55c4b2" class="mono" font-size="11" letter-spacing="2.2">PROJECT NOTE</text>
  <text x="150" y="83" fill="#91a4a3" class="mono" font-size="11" letter-spacing="2.2">INTERACTION / LOCAL-FIRST</text>
  <text x="48" y="169" fill="#f3ebdc" class="sans" font-size="38" font-weight="760" letter-spacing="-1">ADVANCED STICKY NOTE</text>
  <text x="48" y="207" fill="#91a4a3" class="sans" font-size="16">A note workspace I built to explore drag,</text>
  <text x="48" y="232" fill="#91a4a3" class="sans" font-size="16">resize, multiple sheets, and saving</text>
  <text x="48" y="257" fill="#91a4a3" class="sans" font-size="16">everything locally.</text>
  <text x="48" y="290" fill="#ffb000" class="mono" font-size="10" letter-spacing="1.4">REACT · TYPESCRIPT · TAILWIND · LOCAL STORAGE</text>
  <g transform="translate(445 321)">
    <rect x="0" y="16" width="95" height="76" rx="7" fill="#14282c" stroke="#294348" transform="rotate(-6 0 16)"/>
    <rect x="43" width="95" height="76" rx="7" fill="#102528" stroke="#55c4b2" transform="rotate(5 43 0)"/>
    <rect x="102" y="29" width="112" height="80" rx="7" fill="#ffb000"/>
    <path d="M119 50H199M119 69H187M119 88H196" stroke="#081416" stroke-width="4" stroke-linecap="round"/>
  </g>
  <path d="M34 34H62M34 34V62M686 396H658M686 396V368" stroke="#55c4b2" stroke-width="2"/>
</svg>
