<svg width="1200" height="400" viewBox="0 0 1200 400" fill="none" xmlns="http://www.w3.org/2000/svg" role="img" aria-labelledby="title desc">
  <title id="title">What I Reach For</title>
  <desc id="desc">A structured map of frontend tools covering core UI, product logic, interface craft, and delivery.</desc>
  <style>
    .mono { font-family: "SFMono-Regular", Consolas, "Liberation Mono", monospace; }
    .sans { font-family: Inter, ui-sans-serif, system-ui, -apple-system, BlinkMacSystemFont, "Segoe UI", sans-serif; }
  </style>
  <rect width="1200" height="400" rx="22" fill="#081416"/>
  <rect x="20" y="20" width="1160" height="360" rx="16" fill="#0d1d20" stroke="#294348"/>
  <text x="50" y="58" fill="#ffb000" class="mono" font-size="12" letter-spacing="2.5">A SMALL STACK I ACTUALLY USE</text>
  <text x="50" y="108" fill="#f3ebdc" class="sans" font-size="40" font-weight="720" letter-spacing="-1.3">WHAT I REACH FOR</text>
  <text x="850" y="74" fill="#91a4a3" class="mono" font-size="11" letter-spacing="1.5">TOOLS CHANGE.</text>
  <text x="850" y="98" fill="#55c4b2" class="mono" font-size="11" letter-spacing="1.5">CURIOSITY STAYS.</text>
  <path d="M50 132H1150" stroke="#294348"/>

  <g class="mono" font-size="12" letter-spacing="1.5">
    <text x="50" y="177" fill="#ffb000">01</text>
    <text x="92" y="177" fill="#f3ebdc">EVERYDAY UI</text>
    <text x="305" y="177" fill="#91a4a3">REACT</text>
    <text x="487" y="177" fill="#91a4a3">TYPESCRIPT</text>
    <text x="720" y="177" fill="#91a4a3">JAVASCRIPT</text>
    <path d="M245 172H280M377 172H462M589 172H695M815 172H1118" stroke="#294348"/>
    <circle cx="280" cy="172" r="5" fill="#ffb000"/>
    <circle cx="462" cy="172" r="5" fill="#55c4b2"/>
    <circle cx="695" cy="172" r="5" fill="#f3ebdc"/>

    <text x="50" y="229" fill="#55c4b2">02</text>
    <text x="92" y="229" fill="#f3ebdc">PRODUCT STATE</text>
    <text x="305" y="229" fill="#91a4a3">ZUSTAND</text>
    <text x="487" y="229" fill="#91a4a3">REDUX TOOLKIT</text>
    <text x="720" y="229" fill="#91a4a3">FORMS</text>
    <path d="M245 224H280M387 224H462M608 224H695M776 224H1118" stroke="#294348"/>
    <circle cx="280" cy="224" r="5" fill="#55c4b2"/>
    <circle cx="462" cy="224" r="5" fill="#ffb000"/>
    <circle cx="695" cy="224" r="5" fill="#f3ebdc"/>

    <text x="50" y="281" fill="#ffb000">03</text>
    <text x="92" y="281" fill="#f3ebdc">INTERFACE DETAILS</text>
    <text x="305" y="281" fill="#91a4a3">TAILWIND</text>
    <text x="487" y="281" fill="#91a4a3">RESPONSIVE UI</text>
    <text x="720" y="281" fill="#91a4a3">RTL</text>
    <path d="M245 276H280M395 276H462M612 276H695M753 276H1118" stroke="#294348"/>
    <circle cx="280" cy="276" r="5" fill="#ffb000"/>
    <circle cx="462" cy="276" r="5" fill="#55c4b2"/>
    <circle cx="695" cy="276" r="5" fill="#f3ebdc"/>

    <text x="50" y="333" fill="#55c4b2">04</text>
    <text x="92" y="333" fill="#f3ebdc">SHIPPING</text>
    <text x="305" y="333" fill="#91a4a3">NEXT.JS</text>
    <text x="487" y="333" fill="#91a4a3">REST API</text>
    <text x="720" y="333" fill="#91a4a3">GIT</text>
    <path d="M245 328H280M381 328H462M571 328H695M753 328H1118" stroke="#294348"/>
    <circle cx="280" cy="328" r="5" fill="#55c4b2"/>
    <circle cx="462" cy="328" r="5" fill="#ffb000"/>
    <circle cx="695" cy="328" r="5" fill="#f3ebdc"/>
  </g>
  <path d="M34 34H62M34 34V62M1166 366H1138M1166 366V338" stroke="#ffb000" stroke-width="2"/>
</svg>
