<svg width="720" height="720" viewBox="0 0 720 720" fill="none" xmlns="http://www.w3.org/2000/svg" role="img" aria-labelledby="title desc">
  <title id="title">What I Reach For</title>
  <desc id="desc">A mobile structured map of frontend tools covering core UI, product logic, interface craft, and delivery.</desc>
  <style>.mono{font-family:"SFMono-Regular",Consolas,"Liberation Mono",monospace}.sans{font-family:Inter,ui-sans-serif,system-ui,-apple-system,BlinkMacSystemFont,"Segoe UI",sans-serif}</style>
  <rect width="720" height="720" rx="28" fill="#081416"/>
  <rect x="20" y="20" width="680" height="680" rx="20" fill="#0d1d20" stroke="#294348"/>
  <text x="48" y="61" fill="#ffb000" class="mono" font-size="12" letter-spacing="2.3">A SMALL STACK I ACTUALLY USE</text>
  <text x="48" y="113" fill="#f3ebdc" class="sans" font-size="36" font-weight="720" letter-spacing="-1.2">WHAT I REACH FOR</text>
  <text x="48" y="155" fill="#55c4b2" class="mono" font-size="11" letter-spacing="1.5">TOOLS CHANGE. CURIOSITY STAYS.</text>
  <text x="48" y="195" fill="#91a4a3" class="sans" font-size="15">A practical set of tools, learned by building.</text>
  <path d="M48 222H672" stroke="#294348"/>
  <g class="mono">
    <text x="48" y="270" fill="#ffb000" font-size="12">01</text><text x="91" y="270" fill="#f3ebdc" font-size="13" letter-spacing="1.5">EVERYDAY UI</text>
    <text x="91" y="307" fill="#91a4a3" font-size="12" letter-spacing="1.4">REACT  ·  TYPESCRIPT  ·  JAVASCRIPT</text>
    <path d="M48 335H672" stroke="#294348"/>
    <text x="48" y="383" fill="#55c4b2" font-size="12">02</text><text x="91" y="383" fill="#f3ebdc" font-size="13" letter-spacing="1.5">PRODUCT STATE</text>
    <text x="91" y="420" fill="#91a4a3" font-size="12" letter-spacing="1.4">ZUSTAND  ·  REDUX TOOLKIT  ·  FORMS</text>
    <path d="M48 448H672" stroke="#294348"/>
    <text x="48" y="496" fill="#ffb000" font-size="12">03</text><text x="91" y="496" fill="#f3ebdc" font-size="13" letter-spacing="1.5">INTERFACE DETAILS</text>
    <text x="91" y="533" fill="#91a4a3" font-size="12" letter-spacing="1.4">TAILWIND  ·  RESPONSIVE UI  ·  RTL</text>
    <path d="M48 561H672" stroke="#294348"/>
    <text x="48" y="609" fill="#55c4b2" font-size="12">04</text><text x="91" y="609" fill="#f3ebdc" font-size="13" letter-spacing="1.5">SHIPPING</text>
    <text x="91" y="646" fill="#91a4a3" font-size="12" letter-spacing="1.4">NEXT.JS  ·  REST API  ·  GIT</text>
  </g>
  <circle cx="647" cy="264" r="5" fill="#ffb000"/><circle cx="647" cy="377" r="5" fill="#55c4b2"/><circle cx="647" cy="490" r="5" fill="#ffb000"/><circle cx="647" cy="603" r="5" fill="#55c4b2"/>
  <path d="M34 34H62M34 34V62M686 686H658M686 686V658" stroke="#ffb000" stroke-width="2"/>
</svg>
